G04 DipTrace 2.4.0.2*
%INBottomSilk.gbr*%
%MOIN*%
%ADD13C,0.008*%
%FSLAX44Y44*%
G04*
G70*
G90*
G75*
G01*
%LNBotSilk*%
%LPD*%
X4738Y-2180D2*
D13*
X4681Y-2152D1*
X4623Y-2094D1*
X4595Y-2037D1*
Y-1922D1*
X4623Y-1864D1*
X4681Y-1807D1*
X4738Y-1778D1*
X4824Y-1750D1*
X4968D1*
X5054Y-1778D1*
X5112Y-1807D1*
X5169Y-1864D1*
X5198Y-1922D1*
Y-2037D1*
X5169Y-2094D1*
X5112Y-2152D1*
X5054Y-2180D1*
X4882Y-2340D2*
Y-2598D1*
X4853Y-2684D1*
X4824Y-2714D1*
X4767Y-2742D1*
X4710D1*
X4653Y-2714D1*
X4623Y-2684D1*
X4595Y-2598D1*
Y-2340D1*
X5198D1*
X4882Y-2541D2*
X5198Y-2742D1*
X4739Y-2931D2*
X4710D1*
X4653Y-2960D1*
X4624Y-2988D1*
X4596Y-3046D1*
Y-3161D1*
X4624Y-3218D1*
X4653Y-3246D1*
X4710Y-3276D1*
X4767D1*
X4825Y-3246D1*
X4911Y-3189D1*
X5198Y-2902D1*
Y-3304D1*
X4596Y-3636D2*
X4624Y-3550D1*
X4710Y-3493D1*
X4854Y-3464D1*
X4940D1*
X5083Y-3493D1*
X5169Y-3550D1*
X5198Y-3636D1*
Y-3694D1*
X5169Y-3780D1*
X5083Y-3837D1*
X4940Y-3866D1*
X4854D1*
X4710Y-3837D1*
X4624Y-3780D1*
X4596Y-3694D1*
Y-3636D1*
X4710Y-3837D2*
X5083Y-3493D1*
X4596Y-4084D2*
Y-4399D1*
X4825Y-4227D1*
Y-4313D1*
X4854Y-4370D1*
X4882Y-4399D1*
X4968Y-4428D1*
X5025D1*
X5112Y-4399D1*
X5169Y-4342D1*
X5198Y-4255D1*
Y-4169D1*
X5169Y-4084D1*
X5140Y-4055D1*
X5083Y-4026D1*
X4739Y-4617D2*
X4710D1*
X4653Y-4646D1*
X4624Y-4674D1*
X4596Y-4732D1*
Y-4847D1*
X4624Y-4904D1*
X4653Y-4932D1*
X4710Y-4961D1*
X4767D1*
X4825Y-4932D1*
X4911Y-4875D1*
X5198Y-4588D1*
Y-4990D1*
M02*
