G04 DipTrace 2.4.0.2*
%INTop.gbr*%
%MOIN*%
%ADD13C,0.008*%
%ADD14C,0.013*%
%ADD16R,0.0394X0.0433*%
%ADD17R,0.0787X0.0315*%
%ADD18R,0.0433X0.0394*%
%ADD20R,0.0413X0.0256*%
%ADD21R,0.0571X0.0394*%
%ADD22R,0.0236X0.0433*%
%ADD23R,0.0472X0.1575*%
%ADD24C,0.04*%
%FSLAX44Y44*%
G04*
G70*
G90*
G75*
G01*
%LNTop*%
%LPD*%
X2502Y-2500D2*
D13*
Y-2873D1*
X2375Y-3000D1*
X1919D1*
X1835Y-3085D1*
X3875Y2000D2*
X3187D1*
X2875Y1688D1*
Y-1438D1*
X2500Y-1812D1*
Y-2498D1*
X2502Y-2500D1*
X1835Y-2415D2*
X-4210D1*
X-4875Y-1750D1*
Y2750D1*
X-3403Y-3125D2*
X-1375D1*
X4335Y-2853D2*
D14*
Y-2147D1*
X4312Y-2125D1*
X-1375Y-3125D2*
X-625D1*
X875Y-627D2*
D13*
Y500D1*
X1250Y875D1*
X1625D1*
X0Y-3835D2*
X-478D1*
X-625Y-3687D1*
Y-3125D1*
X4335Y-2853D2*
Y-2875D1*
X3000D1*
X2876Y-2751D1*
Y-2500D1*
X3875Y3000D2*
X1937D1*
X1625Y2688D1*
Y875D1*
X4335Y-3522D2*
X4022D1*
X3687Y-3187D1*
X3000D1*
X2875Y-3312D1*
Y-3562D1*
X2876Y-3563D1*
X4335Y-3522D2*
X4603D1*
X4813Y-3312D1*
Y2750D1*
X3875Y3500D2*
X4625D1*
X4813Y3312D1*
Y2750D1*
X-2563Y-4875D2*
X2875D1*
Y-3938D2*
Y-3564D1*
X3210Y-1000D2*
Y-2500D1*
X3250D1*
X3875Y2500D2*
X4375D1*
X4500Y2375D1*
Y-812D1*
X4312Y-1000D1*
X3210D1*
X-3403Y-4070D2*
X-1375D1*
X3250Y-3563D2*
Y-4250D1*
X3000Y-4500D1*
X-1250D1*
X-1375Y-4375D1*
Y-4070D1*
X3875Y4000D2*
X4938D1*
X5188Y3750D1*
Y-3875D1*
X5000Y-4062D1*
X3875D1*
X3750Y-3937D1*
Y-3688D1*
X3625Y-3563D1*
X3250D1*
X2540Y-1000D2*
X625D1*
X250Y-1375D1*
X-1956D1*
X875D2*
X1938D1*
X2188Y-1625D1*
Y-2625D1*
X2063Y-2750D1*
X625D1*
X500Y-2875D1*
Y-3165D1*
X0D1*
X500Y-3835D2*
X2230D1*
X2502Y-3563D1*
X-31Y-1001D2*
Y2315D1*
X-466Y2750D1*
X-31Y-1001D2*
X-2501D1*
X-2625Y-1125D1*
Y-1375D1*
D24*
X4813Y2750D3*
X-2563Y-4875D3*
X2875D3*
Y-3938D3*
X1625Y875D3*
X-625Y-3125D3*
X4312Y-2125D3*
D16*
X4335Y-3522D3*
Y-2853D3*
D17*
X3875Y4000D3*
Y3500D3*
Y3000D3*
Y2500D3*
Y2000D3*
Y1500D3*
D18*
X-2625Y-1375D3*
X-1956D3*
D20*
X875D3*
Y-627D3*
X-31Y-1001D3*
D16*
X1835Y-2415D3*
Y-3085D3*
D18*
X2540Y-1000D3*
X3210D3*
D16*
X500Y-3165D3*
Y-3835D3*
X0D3*
Y-3165D3*
D21*
X-1375Y-3125D3*
X-3403D3*
Y-4070D3*
X-1375D3*
D22*
X3250Y-2500D3*
X2876D3*
X2502D3*
Y-3563D3*
X2876D3*
X3250D3*
D23*
X-4875Y2750D3*
X-466D3*
M02*
